# xmcd
#
# Track frame offsets:
#	150
#	17922
#	34533
#	51321
#	66360
#	84379
#	98725
#	114340
#	132247
#	148481
#	166437
#	180692
#
# Disc length: 2623 seconds
#
# Revision: 1
# Processed by: cddbd v1.5.2PL0 Copyright (c) Steve Scherf et al.
# Submitted via: audiograbber 1.83.01
#
DISCID=a70a3d0c
DTITLE=аццекийг гкиадг (BY DJ ZRAF) - поте дем ежуцес
DYEAR=2007
DGENRE=каийа
TTITLE0=лгм епилемеис
TTITLE1=поте дем ежуцес
TTITLE2=дем пеияафеи
TTITLE3=лг фгтгсеис суцмылг (мтоуето ле том басикг йаяяа)
TTITLE4=ьелата
TTITLE5=поку тувеяг
TTITLE6=паяадеволаи
TTITLE7=де выяифоуле
TTITLE8=дийаиылата
TTITLE9=невасе ле
TTITLE10=апоье леиме
TTITLE11=дийа соу коциа
EXTD=
EXTT0=
EXTT1=
EXTT2=
EXTT3=
EXTT4=
EXTT5=
EXTT6=
EXTT7=
EXTT8=
EXTT9=
EXTT10=
EXTT11=
PLAYORDER=
